<svg width="434" height="225" viewBox="0 0 434 225" fill="none" xmlns="http://www.w3.org/2000/svg">
<mask id="path-1-inside-1_109_85" fill="white">
<path d="M263.3 96.5C263.3 89.5 264.7 83.2667 267.5 77.8C270.367 72.3333 274.434 68.1 279.7 65.1C284.967 62.0333 291.167 60.5 298.3 60.5C304.434 60.5 309.9 61.6667 314.7 64C319.567 66.2667 323.5 69.5 326.5 73.7C329.567 77.9 331.6 82.8 332.6 88.4H309.2C308.134 86.0667 306.6 84.2667 304.6 83C302.667 81.6667 300.434 81 297.9 81C294.167 81 291.2 82.4 289 85.2C286.867 88 285.8 91.7667 285.8 96.5C285.8 101.233 286.867 105 289 107.8C291.2 110.6 294.167 112 297.9 112C300.434 112 302.667 111.367 304.6 110.1C306.6 108.767 308.134 106.933 309.2 104.6H332.6C331.6 110.2 329.567 115.1 326.5 119.3C323.5 123.5 319.567 126.767 314.7 129.1C309.9 131.367 304.434 132.5 298.3 132.5C291.167 132.5 284.967 131 279.7 128C274.434 124.933 270.367 120.667 267.5 115.2C264.7 109.733 263.3 103.5 263.3 96.5Z"/>
</mask>
<path d="M263.3 96.5C263.3 89.5 264.7 83.2667 267.5 77.8C270.367 72.3333 274.434 68.1 279.7 65.1C284.967 62.0333 291.167 60.5 298.3 60.5C304.434 60.5 309.9 61.6667 314.7 64C319.567 66.2667 323.5 69.5 326.5 73.7C329.567 77.9 331.6 82.8 332.6 88.4H309.2C308.134 86.0667 306.6 84.2667 304.6 83C302.667 81.6667 300.434 81 297.9 81C294.167 81 291.2 82.4 289 85.2C286.867 88 285.8 91.7667 285.8 96.5C285.8 101.233 286.867 105 289 107.8C291.2 110.6 294.167 112 297.9 112C300.434 112 302.667 111.367 304.6 110.1C306.6 108.767 308.134 106.933 309.2 104.6H332.6C331.6 110.2 329.567 115.1 326.5 119.3C323.5 123.5 319.567 126.767 314.7 129.1C309.9 131.367 304.434 132.5 298.3 132.5C291.167 132.5 284.967 131 279.7 128C274.434 124.933 270.367 120.667 267.5 115.2C264.7 109.733 263.3 103.5 263.3 96.5Z" fill="white"/>
<path d="M267.5 77.8L255.987 71.7627L255.958 71.818L255.93 71.8736L267.5 77.8ZM279.7 65.1L286.135 76.3959L286.188 76.3654L286.242 76.3343L279.7 65.1ZM314.7 64L309.017 75.6918L309.114 75.7389L309.212 75.7845L314.7 64ZM326.5 73.7L315.922 81.2561L315.961 81.3113L316.001 81.366L326.5 73.7ZM332.6 88.4V101.4H348.127L345.398 86.1147L332.6 88.4ZM309.2 88.4L297.377 93.8049L300.849 101.4H309.2V88.4ZM304.6 83L297.22 93.7018L297.429 93.8464L297.645 93.9826L304.6 83ZM289 85.2L278.778 77.1683L278.718 77.2444L278.66 77.3214L289 85.2ZM289 107.8L278.66 115.679L278.718 115.756L278.778 115.832L289 107.8ZM304.6 110.1L311.725 120.974L311.768 120.945L311.811 120.917L304.6 110.1ZM309.2 104.6V91.6H300.849L297.377 99.1951L309.2 104.6ZM332.6 104.6L345.398 106.885L348.127 91.6H332.6V104.6ZM326.5 119.3L316.001 111.634L315.961 111.689L315.922 111.744L326.5 119.3ZM314.7 129.1L320.251 140.855L320.286 140.839L320.32 140.822L314.7 129.1ZM279.7 128L273.159 139.234L273.212 139.265L273.266 139.296L279.7 128ZM267.5 115.2L255.93 121.126L255.958 121.182L255.987 121.237L267.5 115.2ZM276.3 96.5C276.3 91.2709 277.334 87.1171 279.071 83.7264L255.93 71.8736C252.066 79.4162 250.3 87.7291 250.3 96.5H276.3ZM279.013 83.8373C280.747 80.5303 283.071 78.1412 286.135 76.3959L273.266 53.804C265.796 58.0588 259.986 64.1363 255.987 71.7627L279.013 83.8373ZM286.242 76.3343C289.206 74.608 293.07 73.5 298.3 73.5V47.5C289.264 47.5 280.727 49.4586 273.159 53.8657L286.242 76.3343ZM298.3 73.5C302.758 73.5 306.234 74.3393 309.017 75.6918L320.384 52.3082C313.566 48.9941 306.109 47.5 298.3 47.5V73.5ZM309.212 75.7845C312.13 77.1439 314.279 78.9558 315.922 81.2561L337.079 66.1439C332.722 60.0442 327.004 55.3894 320.189 52.2155L309.212 75.7845ZM316.001 81.366C317.796 83.825 319.117 86.8448 319.803 90.6853L345.398 86.1147C344.084 78.7552 341.337 71.975 336.999 66.034L316.001 81.366ZM332.6 75.4H309.2V101.4H332.6V75.4ZM321.023 82.9951C319.001 78.5703 315.863 74.7454 311.556 72.0173L297.645 93.9826C297.601 93.955 297.548 93.9166 297.492 93.8678C297.435 93.8191 297.389 93.7711 297.354 93.7301C297.279 93.6414 297.301 93.6386 297.377 93.8049L321.023 82.9951ZM311.981 72.2982C307.704 69.349 302.852 68 297.9 68V94C298.016 94 297.947 94.0136 297.757 93.9568C297.558 93.8976 297.365 93.8023 297.22 93.7018L311.981 72.2982ZM297.9 68C290.402 68 283.578 71.0595 278.778 77.1683L299.222 93.2317C299.218 93.2375 299.146 93.3262 298.994 93.45C298.839 93.5764 298.644 93.7026 298.423 93.8066C297.947 94.0315 297.687 94 297.9 94V68ZM278.66 77.3214C274.292 83.0538 272.8 89.8934 272.8 96.5H298.8C298.8 93.64 299.442 92.9462 299.341 93.0786L278.66 77.3214ZM272.8 96.5C272.8 103.107 274.292 109.946 278.66 115.679L299.341 99.9214C299.442 100.054 298.8 99.36 298.8 96.5H272.8ZM278.778 115.832C283.578 121.941 290.402 125 297.9 125V99C297.687 99 297.947 98.9684 298.423 99.1934C298.644 99.2974 298.839 99.4236 298.994 99.55C299.146 99.6738 299.218 99.7625 299.222 99.7683L278.778 115.832ZM297.9 125C302.712 125 307.472 123.76 311.725 120.974L297.476 99.226C297.539 99.1845 297.615 99.1418 297.7 99.103C297.785 99.0642 297.864 99.0366 297.928 99.0182C298.066 98.9793 298.076 99 297.9 99V125ZM311.811 120.917C315.958 118.152 319.023 114.381 321.023 110.005L297.377 99.1951C297.333 99.2921 297.3 99.3488 297.284 99.3742C297.268 99.3991 297.266 99.3999 297.278 99.3848C297.291 99.3693 297.311 99.3479 297.336 99.3253C297.362 99.3027 297.381 99.2887 297.389 99.2833L311.811 120.917ZM309.2 117.6H332.6V91.6H309.2V117.6ZM319.803 102.315C319.117 106.155 317.796 109.175 316.001 111.634L336.999 126.966C341.337 121.025 344.084 114.245 345.398 106.885L319.803 102.315ZM315.922 111.744C314.256 114.076 312.063 115.948 309.08 117.378L320.32 140.822C327.071 137.586 332.745 132.924 337.079 126.856L315.922 111.744ZM309.149 117.345C306.335 118.674 302.812 119.5 298.3 119.5V145.5C306.056 145.5 313.465 144.06 320.251 140.855L309.149 117.345ZM298.3 119.5C293.022 119.5 289.119 118.404 286.135 116.704L273.266 139.296C280.815 143.596 289.312 145.5 298.3 145.5V119.5ZM286.242 116.766C283.116 114.946 280.76 112.493 279.013 109.163L255.987 121.237C259.974 128.84 265.751 134.921 273.159 139.234L286.242 116.766ZM279.071 109.274C277.334 105.883 276.3 101.729 276.3 96.5H250.3C250.3 105.271 252.066 113.584 255.93 121.126L279.071 109.274Z" fill="white" mask="url(#path-1-inside-1_109_85)"/>
<g filter="url(#filter0_d_109_85)">
<line x1="4.66406" y1="210.5" x2="430.001" y2="210.5" stroke="white" stroke-width="13"/>
</g>
<path fill-rule="evenodd" clip-rule="evenodd" d="M21.7449 138.857C35.2902 155.186 49.7926 165.435 64.5627 171.048C83.8656 178.383 103.266 177.663 120.983 172.754C155.71 163.132 184.531 137.272 195.146 122.813L201.346 118.036L208.984 123.92C198.379 167.598 159.39 200 112.916 200C71.9176 200 36.7451 174.784 21.7449 138.857ZM15.7278 118.707C14.5935 112.647 14 106.394 14 100C14 44.7715 58.2861 0 112.916 0C166.979 0 210.912 43.848 211.817 98.2858H207.398L201.346 78.5352L195.294 98.2858H175.71L191.554 110.492L188.734 119.695C178.292 133.297 151.264 157.1 119.114 166.008C102.501 170.611 84.6681 171.199 67.0493 164.504C49.5365 157.849 31.8799 143.863 15.7278 118.707ZM211.307 110.363C211.289 110.532 211.272 110.7 211.254 110.869L211.138 110.492L211.307 110.363ZM135.948 56.7C131.248 52.4 123.998 50.25 114.198 50.25C108.998 50.25 103.998 50.95 99.1981 52.35C94.3981 53.65 90.2481 55.25 86.7481 57.15L90.7981 67.05C94.0981 65.45 97.6481 64.05 101.448 62.85C105.248 61.55 109.248 60.9 113.448 60.9C118.748 60.9 122.848 62.2 125.748 64.8C128.648 67.4 130.098 72.05 130.098 78.75V83.55L116.448 84C103.348 84.4 93.6481 86.8 87.3481 91.2C81.0481 95.5 77.8981 101.65 77.8981 109.65C77.8981 115.05 78.9981 119.55 81.1981 123.15C83.3981 126.65 86.3981 129.25 90.1981 130.95C94.0981 132.65 98.4481 133.5 103.248 133.5C107.748 133.5 111.548 133.05 114.648 132.15C117.848 131.25 120.648 129.85 123.048 127.95C125.548 125.95 127.948 123.5 130.248 120.6H130.848L133.398 132H142.998V77.25C142.998 67.85 140.648 61 135.948 56.7ZM97.2481 97.95C101.148 95.15 108.098 93.55 118.098 93.15L129.948 92.7V99.9C129.948 107.7 127.698 113.5 123.198 117.3C118.698 121 113.048 122.85 106.248 122.85C101.948 122.85 98.3981 121.8 95.5981 119.7C92.8981 117.6 91.5481 114.3 91.5481 109.8C91.5481 104.7 93.4481 100.75 97.2481 97.95Z" fill="white"/>
<path fill-rule="evenodd" clip-rule="evenodd" d="M365.355 101C365.355 138.885 335.068 169 298.439 169C261.811 169 231.523 138.885 231.523 101C231.523 63.1148 261.811 33 298.439 33C335.068 33 365.355 63.1148 365.355 101ZM397.355 101C397.355 156.228 353.069 201 298.439 201C249.544 201 208.935 165.135 200.948 118.007L200.956 118.001L216.8 130.208L210.748 110.457L226.592 98.2506H207.008L201.59 80.5691C210.919 35.1391 250.735 1 298.439 1C353.069 1 397.355 45.7715 397.355 101Z" fill="white"/>
<defs>
<filter id="filter0_d_109_85" x="0.664062" y="204" width="433.337" height="21" filterUnits="userSpaceOnUse" color-interpolation-filters="sRGB">
<feFlood flood-opacity="0" result="BackgroundImageFix"/>
<feColorMatrix in="SourceAlpha" type="matrix" values="0 0 0 0 0 0 0 0 0 0 0 0 0 0 0 0 0 0 127 0" result="hardAlpha"/>
<feOffset dy="4"/>
<feGaussianBlur stdDeviation="2"/>
<feComposite in2="hardAlpha" operator="out"/>
<feColorMatrix type="matrix" values="0 0 0 0 0 0 0 0 0 0 0 0 0 0 0 0 0 0 0.25 0"/>
<feBlend mode="normal" in2="BackgroundImageFix" result="effect1_dropShadow_109_85"/>
<feBlend mode="normal" in="SourceGraphic" in2="effect1_dropShadow_109_85" result="shape"/>
</filter>
</defs>
</svg>
